<mxfile host="app.diagrams.net" modified="2024-06-05T12:25:35.274Z" agent="Mozilla/5.0 (Macintosh; Intel Mac OS X 10_15_7) AppleWebKit/537.36 (KHTML, like Gecko) Chrome/125.0.0.0 Safari/537.36" etag="9Urxkwv2YRaEwirI0wZI" version="24.4.14" type="github">
  <diagram id="piDafpqhtRUU5qUU-vj8" name="Page-1">
    <mxGraphModel dx="752" dy="878" grid="1" gridSize="10" guides="1" tooltips="1" connect="1" arrows="1" fold="1" page="1" pageScale="1" pageWidth="827" pageHeight="1169" math="0" shadow="0">
      <root>
        <mxCell id="0" />
        <mxCell id="1" parent="0" />
        <mxCell id="InpRvtbNJts5H6NB_eB7-1" value="" style="rounded=0;whiteSpace=wrap;html=1;" vertex="1" parent="1">
          <mxGeometry x="80" y="80" width="280" height="480" as="geometry" />
        </mxCell>
        <mxCell id="InpRvtbNJts5H6NB_eB7-2" value="" style="rounded=0;whiteSpace=wrap;html=1;" vertex="1" parent="1">
          <mxGeometry x="490" y="80" width="280" height="480" as="geometry" />
        </mxCell>
        <mxCell id="InpRvtbNJts5H6NB_eB7-3" value="" style="rounded=0;whiteSpace=wrap;html=1;" vertex="1" parent="1">
          <mxGeometry x="274" y="640" width="280" height="480" as="geometry" />
        </mxCell>
        <mxCell id="InpRvtbNJts5H6NB_eB7-6" value="" style="rounded=0;whiteSpace=wrap;html=1;" vertex="1" parent="1">
          <mxGeometry x="90" y="90" width="260" height="30" as="geometry" />
        </mxCell>
        <mxCell id="InpRvtbNJts5H6NB_eB7-7" value="" style="rounded=0;whiteSpace=wrap;html=1;" vertex="1" parent="1">
          <mxGeometry x="500" y="90" width="260" height="30" as="geometry" />
        </mxCell>
        <mxCell id="InpRvtbNJts5H6NB_eB7-8" value="" style="rounded=0;whiteSpace=wrap;html=1;" vertex="1" parent="1">
          <mxGeometry x="284" y="650" width="260" height="30" as="geometry" />
        </mxCell>
      </root>
    </mxGraphModel>
  </diagram>
</mxfile>
